<svg width="452" height="468" viewBox="0 0 452 468" fill="none" xmlns="http://www.w3.org/2000/svg">
<path d="M1.3999 129.2C0.733236 126 0.599902 122.667 0.999902 119.2C1.53324 115.6 1.93324 112.2 2.1999 109L4.1999 95.8C4.86657 91.4 5.53324 87.0667 6.1999 82.8C8.5999 68.9334 11.3999 55.4 14.5999 42.2L18.9999 24.2C20.5999 18.0667 22.5999 12.0667 24.9999 6.20004C25.2666 5.40004 25.7332 4.53337 26.3999 3.60003C27.0666 2.6667 27.7332 1.93337 28.3999 1.40004C29.1999 0.866701 29.9999 0.733366 30.7999 1.00003C31.5999 1.13337 32.2666 2.00004 32.7999 3.60003C33.0666 4.40004 33.0666 5.40004 32.7999 6.60004C32.6666 7.80004 32.3999 9.06671 31.9999 10.4C31.5999 11.6 31.1332 12.8 30.5999 14C30.1999 15.2 29.9332 16.2 29.7999 17C25.7999 33 21.9332 49 18.1999 65C14.4666 81 11.4666 97.2 9.1999 113.6C9.06657 114.533 8.86657 115.733 8.5999 117.2C8.33324 118.533 8.13324 119.933 7.9999 121.4C7.86657 122.733 7.86657 124.067 7.9999 125.4C8.26657 126.6 8.7999 127.533 9.5999 128.2C10.5332 129 12.4666 128.933 15.3999 128C18.3332 127.067 21.4666 125.867 24.7999 124.4C28.1332 122.933 31.3332 121.533 34.3999 120.2C37.4666 118.867 39.5999 118.133 40.7999 118C41.3332 118 42.1332 118.133 43.1999 118.4C44.2666 118.533 45.1332 118.867 45.7999 119.4C46.5999 119.8 46.8666 120.467 46.5999 121.4C46.3332 122.333 45.0666 123.467 42.7999 124.8C39.9999 126.533 36.9999 128.067 33.7999 129.4C30.5999 130.733 27.3999 131.867 24.1999 132.8C20.9999 133.733 17.7999 134.333 14.5999 134.6C11.5332 134.867 8.73324 134.733 6.1999 134.2C3.66657 133.8 2.06657 132.133 1.3999 129.2Z" fill="black"/>
<path fill-rule="evenodd" clip-rule="evenodd" d="M63.2077 122C59.4744 119.6 57.141 116.6 56.2077 113C55.2744 109.267 55.2744 105.533 56.2077 101.8C57.141 97.9334 58.741 94.2667 61.0077 90.8C63.4077 87.2 66.0077 84.3334 68.8077 82.2C71.6077 80.0667 74.4077 78.8667 77.2077 78.6C80.0077 78.3334 82.2744 79.4667 84.0077 82C85.2077 83.6 85.8077 85.2667 85.8077 87C85.8077 88.6 85.4077 90.2 84.6077 91.8C83.9411 93.2667 82.9411 94.6 81.6077 95.8C80.2744 96.8667 78.8077 97.7334 77.2077 98.4C75.2077 99.0667 72.8744 99.5334 70.2077 99.8C69.6744 99.9334 68.5411 99.9334 66.8077 99.8C65.2077 99.5334 64.2077 99.5334 63.8077 99.8C63.141 100.333 62.6744 101.2 62.4077 102.4C62.2744 103.6 62.2744 104.867 62.4077 106.2C62.541 107.533 62.741 108.867 63.0077 110.2C63.2744 111.4 63.6077 112.333 64.0077 113C65.4744 115.667 67.6077 117.333 70.4077 118C73.2077 118.667 76.2744 118.8 79.6077 118.4C82.9411 117.867 86.4077 116.933 90.0077 115.6C93.6077 114.133 97.0744 112.533 100.408 110.8C103.874 109.067 106.941 107.4 109.608 105.8C112.408 104.2 114.608 102.933 116.208 102C117.008 101.6 118.074 100.867 119.408 99.8C120.741 98.6 122.141 97.5334 123.608 96.6C125.074 95.5334 126.541 94.7334 128.008 94.2C129.474 93.6667 130.674 93.8 131.608 94.6C132.941 95.8 133.408 97 133.008 98.2C132.608 99.2667 131.808 100.333 130.608 101.4C129.541 102.333 128.341 103.2 127.008 104C125.674 104.667 124.674 105.2 124.008 105.6C120.408 107.733 116.008 110.333 110.808 113.4C105.741 116.467 100.341 119.133 94.6077 121.4C89.0077 123.533 83.4077 124.867 77.8077 125.4C72.3411 125.933 67.4744 124.8 63.2077 122ZM74.6077 86C71.8077 87.6 69.4077 89.9334 67.4077 93C68.8744 93 70.5411 92.8667 72.4077 92.6C74.4077 92.3334 75.9411 91.6667 77.0077 90.6C77.5411 90.0667 77.8744 89.4 78.0077 88.6C78.2744 87.8 78.341 87.1334 78.2077 86.6C78.0744 85.9334 77.6744 85.5334 77.0077 85.4C76.4744 85.2667 75.6744 85.4667 74.6077 86Z" fill="black"/>
<path d="M2.39995 445.2C0.933285 437.467 0.199951 429.467 0.199951 421.2C0.333285 412.933 1.19995 404.8 2.79995 396.8C4.39995 388.667 6.73328 380.8 9.79995 373.2C13 365.6 16.8666 358.533 21.4 352C23.1333 349.6 25 347.267 27 345C29.1333 342.6 31.4 340.467 33.8 338.6C36.3333 336.733 39 335.2 41.8 334C44.6 332.8 47.6 332.067 50.8 331.8C53.7333 331.533 57.0666 331.867 60.8 332.8C64.5333 333.733 67.3333 335.467 69.2 338C70.2666 339.467 70.6 340.867 70.2 342.2C69.9333 343.533 68.8 344.267 66.8 344.4C65.8666 344.4 64.7333 344.067 63.4 343.4C62.2 342.6 61.2666 342.067 60.6 341.8C57.4 340.733 54.2 340.533 51 341.2C47.9333 341.867 45 343.133 42.2 345C38.2 347.667 34.7333 351.067 31.8 355.2C28.8666 359.2 26.2 363.333 23.8 367.6C16.3333 381.2 11.4666 395.8 9.19995 411.4C8.66662 414.733 8.26662 418.4 7.99995 422.4C7.86662 426.4 7.93328 430.4 8.19995 434.4C8.59995 438.4 9.33329 442.267 10.4 446C11.6 449.733 13.3333 453.067 15.6 456C17.6 458.667 19.9333 459.933 22.6 459.8C25.4 459.533 28.0666 458.6 30.6 457C33.2666 455.267 35.6666 453.267 37.8 451C39.9333 448.6 41.4666 446.6 42.4 445C42.7999 443.667 43.4 442.933 44.2 442.8C45.1333 442.533 46 442.667 46.8 443.2C47.6 443.733 48.1333 444.533 48.4 445.6C48.7999 446.667 48.7333 447.8 48.2 449C47 451.533 45.4 453.933 43.4 456.2C41.4 458.333 39.1333 460.267 36.6 462C34.0666 463.6 31.4 464.933 28.6 466C25.8 467.067 23.0666 467.667 20.4 467.8C17.3333 467.933 14.7333 467.333 12.6 466C10.6 464.533 8.86662 462.667 7.39995 460.4C6.06662 458.133 4.99995 455.667 4.19995 453C3.39995 450.2 2.79995 447.6 2.39995 445.2Z" fill="black"/>
<path d="M98.9609 418.8C100.561 418.8 101.761 418.067 102.561 416.6C103.361 415 103.028 413.667 101.561 412.6C98.0942 409.8 94.6276 408.533 91.1609 408.8C87.8276 409.067 84.6276 410.2 81.5609 412.2C78.4942 414.2 75.6942 416.733 73.1609 419.8C70.6276 422.867 68.4942 425.8 66.7609 428.6C66.8942 427.8 67.2942 426.467 67.9609 424.6C68.6276 422.733 69.1609 420.933 69.5609 419.2C69.9609 417.333 69.9609 415.667 69.5609 414.2C69.2942 412.733 68.3609 412 66.7609 412C65.4276 412 64.2942 412.8 63.3609 414.4C62.5609 415.867 61.8942 417.6 61.3609 419.6C60.8276 421.6 60.3609 423.6 59.9609 425.6C59.6942 427.6 59.4942 429.067 59.3609 430C59.2276 430.667 58.9609 431.867 58.5609 433.6C58.0276 435.333 57.5609 437.333 57.1609 439.6C56.6276 441.867 56.2276 444.2 55.9609 446.6C55.5609 449 55.4276 451.133 55.5609 453C55.6942 454.867 56.0942 456.333 56.7609 457.4C57.2942 458.333 58.3609 458.533 59.9609 458C61.0276 457.6 61.9609 456.6 62.7609 455C63.6942 453.4 64.4942 451.6 65.1609 449.6C65.9609 447.467 66.6276 445.467 67.1609 443.6C67.8276 441.6 68.4276 440.067 68.9609 439C70.4276 436.333 71.9609 433.667 73.5609 431C75.1609 428.2 77.0276 425.6 79.1609 423.2C80.6276 421.6 82.3609 420 84.3609 418.4C86.4942 416.8 88.7609 415.933 91.1609 415.8C92.6276 415.8 93.9609 416.333 95.1609 417.4C96.3609 418.333 97.6276 418.8 98.9609 418.8Z" fill="black"/>
<path fill-rule="evenodd" clip-rule="evenodd" d="M142.269 431.6C145.747 431.501 149.151 431.068 152.481 430.302L148.72 447.6C148.587 448.267 148.387 449.333 148.12 450.8C147.854 452.133 147.72 453.533 147.72 455C147.72 456.333 147.987 457.533 148.52 458.6C149.054 459.533 150.054 459.933 151.52 459.8C152.72 459.667 153.72 458.4 154.52 456C155.32 453.6 155.987 450.867 156.52 447.8C157.187 444.6 157.72 441.6 158.12 438.8C158.52 436 158.854 434.133 159.12 433.2C159.787 430 160.52 426.867 161.32 423.8C162.254 420.6 163.054 417.4 163.72 414.2C163.987 412.733 163.92 411.467 163.52 410.4C163.254 409.333 162.72 408.667 161.92 408.4C161.254 408 160.454 408.067 159.52 408.6C158.72 409 157.987 409.933 157.32 411.4C155.987 414.067 155.054 417 154.52 420.2C154.381 421.034 154.238 421.855 154.089 422.662C153.762 422.695 153.422 422.741 153.069 422.8C152.269 422.933 151.469 423.133 150.669 423.4C149.869 423.667 149.202 423.867 148.669 424C145.735 424.533 142.669 424.867 139.469 425C136.269 425 133.269 424.667 130.469 424C129.269 423.733 128.269 423.333 127.469 422.8L125.269 420.6C124.602 419.8 123.869 419.067 123.069 418.4C122.402 417.6 121.469 416.933 120.269 416.4C117.735 415.333 115.535 415.2 113.669 416C111.802 416.667 110.202 418.067 108.869 420.2C107.669 422.2 106.402 424.4 105.069 426.8C103.735 429.2 102.735 431.733 102.069 434.4C101.269 436.933 101.069 439.467 101.469 442C101.735 444.533 102.869 446.867 104.869 449C107.802 452.067 110.669 453.4 113.469 453C116.269 452.467 118.735 451 120.869 448.6C123.002 446.2 124.735 443.333 126.069 440C127.402 436.533 128.135 433.467 128.269 430.8C132.935 431.467 137.602 431.733 142.269 431.6ZM119.069 439.6C118.269 441.6 117.069 443.267 115.469 444.6C114.002 445.8 112.602 445.933 111.269 445C109.935 444.067 109.002 442.867 108.469 441.4C107.935 439.533 108.069 437.2 108.869 434.4C109.802 431.6 110.935 429.6 112.269 428.4C113.335 427.333 114.269 426.867 115.069 427C115.869 427 117.002 427.533 118.469 428.6C119.135 429 119.669 429.333 120.069 429.6C120.469 429.733 120.735 429.933 120.869 430.2C121.135 430.333 121.202 430.667 121.069 431.2C121.069 431.733 121.002 432.533 120.869 433.6C120.602 435.467 120.002 437.467 119.069 439.6Z" fill="black"/>
<path d="M168.92 386.4C168.52 385.467 167.787 384.867 166.72 384.6C165.52 384.333 164.52 384.6 163.72 385.4C162.92 386.067 162.387 387 162.12 388.2C161.987 389.267 162.12 390.333 162.52 391.4C162.92 392.333 163.787 392.867 165.12 393C166.187 393.133 167.054 392.867 167.72 392.2C168.52 391.4 168.987 390.467 169.12 389.4C169.387 388.333 169.32 387.333 168.92 386.4Z" fill="black"/>
<path d="M201.033 399.4C198.766 398.467 196.433 398.2 194.033 398.6C188.699 399.533 185.233 401.533 183.633 404.6C182.166 407.533 181.699 411 182.233 415C182.766 419 183.833 423.267 185.433 427.8C187.033 432.333 188.299 436.667 189.233 440.8C190.299 444.8 190.566 448.4 190.033 451.6C189.633 454.667 187.566 456.8 183.833 458C181.699 458.667 179.566 458.667 177.433 458C175.299 457.2 174.366 455.467 174.633 452.8C174.633 452.267 174.833 451.333 175.233 450C175.633 448.667 175.833 447.467 175.833 446.4C175.966 445.333 175.699 444.533 175.033 444C174.499 443.467 173.299 443.6 171.433 444.4C170.499 444.8 169.766 445.533 169.233 446.6C168.699 447.667 168.299 448.867 168.033 450.2C167.766 451.4 167.633 452.667 167.633 454C167.499 455.2 167.566 456.2 167.833 457C168.499 459 169.633 460.667 171.233 462C172.699 463.333 174.366 464.333 176.233 465C178.766 465.8 181.166 466 183.433 465.6C185.833 465.067 187.966 464.2 189.833 463C191.699 461.667 193.233 460 194.433 458C195.633 455.867 196.366 453.533 196.633 451C197.033 447.8 196.899 444.733 196.233 441.8C195.566 438.733 194.699 435.8 193.633 433C192.699 430.067 191.699 427.133 190.633 424.2C189.699 421.267 189.233 418.2 189.233 415C189.233 414.2 189.366 413.133 189.633 411.8C190.033 410.333 190.566 409.067 191.233 408C192.033 406.8 192.966 405.933 194.033 405.4C195.099 404.733 196.366 404.8 197.833 405.6C198.766 406 199.166 406.6 199.033 407.4C198.899 408.2 198.699 409.067 198.433 410C198.166 410.8 198.033 411.6 198.033 412.4C198.033 413.2 198.633 413.867 199.833 414.4C201.166 415.067 202.233 415.067 203.033 414.4C203.966 413.733 204.633 412.8 205.033 411.6C205.566 410.4 205.899 409.133 206.033 407.8C206.166 406.333 206.099 405.2 205.833 404.4C205.033 401.867 203.433 400.2 201.033 399.4Z" fill="black"/>
<path d="M244.392 399.4C242.125 398.467 239.792 398.2 237.392 398.6C232.059 399.533 228.592 401.533 226.992 404.6C225.525 407.533 225.059 411 225.592 415C226.125 419 227.192 423.267 228.792 427.8C230.392 432.333 231.659 436.667 232.592 440.8C233.659 444.8 233.925 448.4 233.392 451.6C232.992 454.667 230.925 456.8 227.192 458C225.059 458.667 222.925 458.667 220.792 458C218.659 457.2 217.725 455.467 217.992 452.8C217.992 452.267 218.192 451.333 218.592 450C218.992 448.667 219.192 447.467 219.192 446.4C219.325 445.333 219.059 444.533 218.392 444C217.859 443.467 216.659 443.6 214.792 444.4C213.859 444.8 213.125 445.533 212.592 446.6C212.059 447.667 211.659 448.867 211.392 450.2C211.125 451.4 210.992 452.667 210.992 454C210.859 455.2 210.925 456.2 211.192 457C211.859 459 212.992 460.667 214.592 462C216.059 463.333 217.725 464.333 219.592 465C222.125 465.8 224.525 466 226.792 465.6C229.192 465.067 231.325 464.2 233.192 463C235.059 461.667 236.592 460 237.792 458C238.992 455.867 239.725 453.533 239.992 451C240.392 447.8 240.259 444.733 239.592 441.8C238.925 438.733 238.059 435.8 236.992 433C236.059 430.067 235.059 427.133 233.992 424.2C233.059 421.267 232.592 418.2 232.592 415C232.592 414.2 232.725 413.133 232.992 411.8C233.392 410.333 233.925 409.067 234.592 408C235.392 406.8 236.325 405.933 237.392 405.4C238.459 404.733 239.725 404.8 241.192 405.6C242.125 406 242.525 406.6 242.392 407.4C242.259 408.2 242.059 409.067 241.792 410C241.525 410.8 241.392 411.6 241.392 412.4C241.392 413.2 241.992 413.867 243.192 414.4C244.525 415.067 245.592 415.067 246.392 414.4C247.325 413.733 247.992 412.8 248.392 411.6C248.925 410.4 249.259 409.133 249.392 407.8C249.525 406.333 249.459 405.2 249.192 404.4C248.392 401.867 246.792 400.2 244.392 399.4Z" fill="black"/>
<path fill-rule="evenodd" clip-rule="evenodd" d="M342.952 426.4C343.116 426.195 343.28 426.008 343.445 425.841C343.673 425.027 343.912 424.214 344.159 423.4C344.693 421.4 345.159 419.2 345.559 416.8C346.093 414.267 346.893 412.067 347.959 410.2C348.493 409.267 349.159 408.533 349.959 408C350.759 407.333 351.493 407 352.159 407C352.959 407 353.626 407.333 354.159 408C354.693 408.667 354.959 409.733 354.959 411.2C354.959 413.333 354.426 415.667 353.359 418.2C352.293 420.733 351.493 422.933 350.959 424.8C350.026 427.867 349.159 430.933 348.359 434L346.359 443.2C349.159 438.667 352.159 433.867 355.359 428.8C358.559 423.6 362.426 419.467 366.959 416.4C368.959 415.067 370.826 414.4 372.559 414.4C374.293 414.267 375.759 414.667 376.959 415.6C378.293 416.533 379.293 417.933 379.959 419.8C380.626 421.533 380.826 423.467 380.559 425.6C380.426 427.067 379.959 429.067 379.159 431.6C378.359 434.133 377.693 436.733 377.159 439.4C376.626 441.933 376.493 444.267 376.759 446.4C377.159 448.533 378.426 449.933 380.559 450.6C382.293 451.267 384.226 451.267 386.359 450.6C388.626 449.8 390.826 448.8 392.959 447.6C395.226 446.267 397.359 444.867 399.359 443.4C401.359 441.933 402.959 440.733 404.159 439.8C407.493 437.4 410.693 434.6 413.759 431.4C416.493 428.428 419.386 425.986 422.438 424.074L422.716 422.908C422.791 422.594 422.866 422.281 422.941 421.969C423.051 421.512 423.16 421.056 423.27 420.6C425.27 412.733 427.337 404.867 429.47 397C428.804 397 427.537 396.867 425.67 396.6C423.937 396.333 422.337 395.933 420.87 395.4C419.404 394.733 418.47 394 418.07 393.2C417.537 392.267 418.337 391.133 420.47 389.8C421.137 389.4 421.937 389.267 422.87 389.4C423.937 389.533 424.937 389.733 425.87 390C426.937 390.133 427.937 390.267 428.87 390.4C429.804 390.533 430.604 390.4 431.27 390C431.67 389.733 431.937 389.2 432.07 388.4C432.337 387.6 432.537 386.733 432.67 385.8C432.937 384.867 433.137 384 433.27 383.2C433.404 382.267 433.537 381.6 433.67 381.2C435.137 375.467 436.67 369.8 438.27 364.2L443.07 347.4C443.337 346.733 443.537 345.933 443.67 345C443.804 344.067 444.07 343.267 444.47 342.6C445.137 341.533 445.937 340.733 446.87 340.2C447.937 339.667 449.07 339.933 450.27 341C451.337 342.067 451.604 343.4 451.07 345C450.537 346.6 450.137 347.933 449.87 349C447.87 355.8 445.937 362.667 444.07 369.6C442.204 376.4 440.337 383.267 438.47 390.2C439.27 390.2 440.204 390.133 441.27 390C442.47 389.733 443.604 389.667 444.67 389.8C445.737 389.933 446.604 390.267 447.27 390.8C447.937 391.333 448.204 392.267 448.07 393.6C447.937 394.667 447.537 395.467 446.87 396C446.337 396.4 445.604 396.667 444.67 396.8C443.87 396.933 443.004 397 442.07 397C441.137 397 440.27 397.067 439.47 397.2C438.404 397.467 437.67 397.6 437.27 397.6C437.004 397.467 436.804 397.467 436.67 397.6V398.4C436.67 398.667 436.404 399.2 435.87 400C435.204 401.2 434.737 402.667 434.47 404.4C434.204 406 433.87 407.533 433.47 409L429.311 425.637C429.296 426.189 429.155 426.802 428.887 427.473C427.948 431.567 427.009 435.609 426.07 439.6C425.004 444.133 424.004 448.733 423.07 453.4C422.937 454.2 422.804 455.4 422.67 457C422.67 458.467 422.47 460 422.07 461.6C421.804 463.2 421.404 464.6 420.87 465.8C420.337 466.867 419.47 467.4 418.27 467.4C416.404 467.4 415.337 466.4 415.07 464.4C414.67 462.267 414.67 459.867 415.07 457.2C415.47 454.4 416.004 451.733 416.67 449.2C417.204 446.667 417.604 445 417.87 444.2C418.446 441.543 419.029 438.901 419.619 436.274C416.661 438.844 413.641 441.353 410.559 443.8C406.026 447.4 401.226 450.533 396.159 453.2C394.293 454.133 392.426 455 390.559 455.8C388.693 456.6 386.759 457.133 384.759 457.4C383.026 457.667 381.426 457.8 379.959 457.8C378.493 457.8 377.093 457.333 375.759 456.4C374.959 455.867 373.959 454.933 372.759 453.6C371.693 452.267 370.959 450.933 370.559 449.6C370.026 448.133 369.759 446.533 369.759 444.8C369.893 443.067 370.093 441.467 370.359 440C370.493 439.2 370.826 437.867 371.359 436C371.893 434.133 372.426 432.2 372.959 430.2C373.493 428.2 373.826 426.333 373.959 424.6C374.226 422.867 374.093 421.8 373.559 421.4C372.359 420.6 370.693 421.333 368.559 423.6C366.426 425.733 364.226 428.4 361.959 431.6C359.826 434.667 357.826 437.667 355.959 440.6C354.226 443.533 353.159 445.4 352.759 446.2C352.226 447 351.493 448.267 350.559 450C349.626 451.733 348.493 453.333 347.159 454.8C345.959 456.267 344.693 457.267 343.359 457.8C341.893 458.333 340.493 457.8 339.159 456.2C338.493 455.4 338.093 454.4 337.959 453.2C337.826 451.867 337.893 450.533 338.159 449.2C338.293 447.867 338.493 446.533 338.759 445.2C339.026 443.867 339.293 442.733 339.559 441.8C339.651 441.379 339.744 440.957 339.838 440.536C339.291 441.021 338.729 441.509 338.152 442C335.485 444.267 332.818 446.4 330.151 448.4C327.618 450.267 325.285 451.933 323.151 453.4C321.151 454.733 319.818 455.6 319.151 456C315.685 458 312.085 459.467 308.352 460.4C304.618 461.2 301.152 461.267 297.952 460.6C294.751 459.8 292.085 458.133 289.952 455.6C287.952 452.933 286.885 449.133 286.751 444.2C285.551 445.8 284.218 447.4 282.751 449C281.285 450.6 279.618 452 277.751 453.2C276.018 454.4 274.151 455.267 272.151 455.8C270.151 456.333 268.085 456.267 265.952 455.6C264.085 455.067 262.552 454.133 261.352 452.8C260.285 451.467 259.418 450 258.751 448.4C258.085 446.8 257.685 445.067 257.552 443.2C257.285 441.333 257.151 439.6 257.151 438C257.285 433.6 258.418 429.533 260.552 425.8C262.685 421.933 265.352 418.933 268.552 416.8C271.752 414.533 275.285 413.467 279.151 413.6C283.151 413.733 287.151 415.533 291.151 419C291.285 418.333 291.552 417.267 291.952 415.8C292.352 414.333 292.818 413 293.352 411.8C294.018 410.467 294.818 409.467 295.751 408.8C296.685 408.133 297.818 408.2 299.151 409C300.085 409.667 300.618 410.533 300.751 411.6C300.885 412.667 300.818 413.867 300.552 415.2C300.285 416.4 299.885 417.6 299.352 418.8C298.952 420 298.618 420.933 298.352 421.6C297.685 423.333 296.818 425.733 295.751 428.8C294.818 431.733 294.085 434.8 293.552 438C293.152 441.2 293.152 444.267 293.552 447.2C293.952 450 295.218 452.067 297.352 453.4C299.485 454.867 301.952 455.333 304.751 454.8C307.685 454.133 310.552 453.067 313.352 451.6C316.285 450 319.018 448.2 321.552 446.2C324.085 444.2 326.085 442.6 327.552 441.4C329.952 439.267 332.285 437.133 334.552 435C336.818 432.733 339.085 430.4 341.352 428L342.952 426.4ZM287.352 424.2C288.552 425.133 288.818 426.333 288.151 427.8C287.352 429.533 286.485 431.4 285.552 433.4C284.618 435.267 283.552 437.133 282.352 439C281.151 440.733 279.818 442.4 278.352 444C277.018 445.467 275.485 446.667 273.751 447.6C271.885 448.667 270.285 449.067 268.952 448.8C267.751 448.533 266.751 447.867 265.952 446.8C265.152 445.733 264.618 444.467 264.352 443C264.085 441.4 264.018 439.8 264.151 438.2C264.418 435.133 265.151 432 266.352 428.8C267.685 425.6 269.818 423.267 272.751 421.8C273.551 421.4 274.952 421.2 276.952 421.2C278.952 421.2 280.885 421.467 282.751 422C284.618 422.533 286.151 423.267 287.352 424.2Z" fill="black"/>
<path fill-rule="evenodd" clip-rule="evenodd" d="M4.19998 304.4C2.46664 304 1.59998 302.133 1.59998 298.8C1.73331 295.467 2.19998 291.733 2.99998 287.6C3.93331 283.467 4.93331 279.533 5.99998 275.8C7.06664 272.067 7.73331 269.667 7.99998 268.6C4.93331 268.467 3.39998 267.733 3.39998 266.4C3.53331 264.933 4.66664 263.467 6.79998 262C7.06664 261.733 7.53331 261.467 8.19998 261.2C8.86664 260.933 9.33331 260.667 9.59998 260.4C9.99998 260 10.3333 259.4 10.6 258.6C11 257.667 11.2666 256.667 11.4 255.6C11.6666 254.533 11.8666 253.533 12 252.6C12.1333 251.533 12.2666 250.667 12.4 250C15.2 238.8 18.0666 227.733 21 216.8C24.0666 205.867 27.0666 194.8 30 183.6C29.6 183.733 28.4666 184.067 26.6 184.6C24.8666 185 23.0666 185.267 21.2 185.4C19.4666 185.4 18.0666 185.133 17 184.6C16.0666 183.933 16.2 182.6 17.4 180.6C18.0666 179.4 19.2666 178.533 21 178C22.7333 177.333 24.6 176.8 26.6 176.4C28.6 176 30.5333 175.733 32.4 175.6C34.4 175.467 36 175.267 37.2 175C40.8 174.467 44.8666 174.067 49.4 173.8C53.9333 173.4 58.1333 173.667 62 174.6C66 175.533 69.3333 177.333 72 180C74.8 182.667 76.2 186.6 76.2 191.8C76.3333 194.867 75.9333 198 75 201.2C74.2 204.267 73.2666 207.133 72.2 209.8C70.2 215.4 67.6666 220.867 64.6 226.2C61.5333 231.533 58 236.6 54 241.4C50.1333 246.067 45.8 250.333 41 254.2C36.3333 258.067 31.3333 261.267 26 263.8C24.8 264.467 23.4666 265 22 265.4C20.5333 265.8 19.2666 266.333 18.2 267C17.4 267.533 16.7333 268.333 16.2 269.4C15.6666 270.467 15.2 271.6 14.8 272.8C14.5333 274 14.2666 275.267 14 276.6C13.7333 277.933 13.4666 279.133 13.2 280.2C12.9333 281.133 12.6 283 12.2 285.8C11.8 288.467 11.2 291.267 10.4 294.2C9.73331 297 8.86664 299.467 7.79998 301.6C6.86664 303.733 5.66664 304.667 4.19998 304.4ZM20.2 252C19.9333 253.467 19.6666 254.667 19.4 255.6C19.2666 256.533 19 257.733 18.6 259.2C23.2666 258.267 27.6 256.467 31.6 253.8C35.7333 251 39.5333 247.8 43 244.2C46.4666 240.6 49.5333 236.733 52.2 232.6C55 228.333 57.4 224.2 59.4 220.2C60.3333 218.467 61.4 216.267 62.6 213.6C63.9333 210.8 65.0666 207.867 66 204.8C67.0666 201.733 67.8 198.733 68.2 195.8C68.6 192.867 68.3333 190.267 67.4 188C66.3333 185.467 64.4666 183.8 61.8 183C59.2666 182.2 56.7333 181.667 54.2 181.4C50.3333 181 46.5333 181 42.8 181.4C41.7333 181.533 40.9333 181.6 40.4 181.6C40 181.6 39.6666 181.733 39.4 182C39.1333 182.133 38.8666 182.467 38.6 183C38.4666 183.4 38.2 184 37.8 184.8L36.4 190.8C33.8666 201.067 31.2 211.267 28.4 221.4C25.6 231.533 22.8666 241.733 20.2 252Z" fill="black"/>
<path fill-rule="evenodd" clip-rule="evenodd" d="M58.1609 283C59.0942 286.6 61.4276 289.6 65.1609 292C69.4276 294.8 74.2943 295.933 79.7609 295.4C85.3609 294.867 90.9609 293.533 96.5609 291.4C102.294 289.133 107.694 286.467 112.761 283.4C117.779 280.441 122.051 277.916 125.579 275.826C124.955 278.601 124.338 281.392 123.73 284.2C123.463 285 123.063 286.667 122.53 289.2C121.863 291.733 121.33 294.4 120.93 297.2C120.53 299.867 120.53 302.267 120.93 304.4C121.196 306.4 122.263 307.4 124.13 307.4C125.33 307.4 126.196 306.867 126.73 305.8C127.263 304.6 127.663 303.2 127.93 301.6C128.33 300 128.53 298.467 128.53 297C128.663 295.4 128.796 294.2 128.93 293.4C129.863 288.733 130.863 284.133 131.93 279.6C132.714 276.266 133.499 272.895 134.283 269.488C134.574 269.059 134.8 268.629 134.961 268.2C135.146 267.646 135.146 267.092 134.961 266.538L135.13 265.8L139.33 249C139.73 247.533 140.063 246 140.33 244.4C140.596 242.667 141.063 241.2 141.73 240C142.263 239.2 142.53 238.667 142.53 238.4V237.6C142.663 237.467 142.863 237.467 143.13 237.6C143.53 237.6 144.263 237.467 145.33 237.2C146.13 237.067 146.996 237 147.93 237C148.863 237 149.73 236.933 150.53 236.8C151.463 236.667 152.196 236.4 152.73 236C153.396 235.467 153.796 234.667 153.93 233.6C154.063 232.267 153.796 231.333 153.13 230.8C152.463 230.267 151.596 229.933 150.53 229.8C149.463 229.667 148.33 229.733 147.13 230C146.063 230.133 145.13 230.2 144.33 230.2C146.196 223.267 148.063 216.4 149.93 209.6C151.796 202.667 153.73 195.8 155.73 189C155.996 187.933 156.396 186.6 156.93 185C157.463 183.4 157.196 182.067 156.13 181C154.93 179.933 153.796 179.667 152.73 180.2C151.796 180.733 150.996 181.533 150.33 182.6C149.93 183.267 149.663 184.067 149.53 185C149.396 185.933 149.196 186.733 148.93 187.4L144.13 204.2C142.53 209.8 140.996 215.467 139.53 221.2C139.396 221.6 139.263 222.267 139.13 223.2C138.996 224 138.796 224.867 138.53 225.8C138.396 226.733 138.196 227.6 137.93 228.4C137.796 229.2 137.53 229.733 137.13 230C136.463 230.4 135.663 230.533 134.73 230.4C133.796 230.267 132.796 230.133 131.73 230C130.796 229.733 129.796 229.533 128.73 229.4C127.796 229.267 126.996 229.4 126.33 229.8C124.196 231.133 123.396 232.267 123.93 233.2C124.33 234 125.263 234.733 126.73 235.4C128.196 235.933 129.796 236.333 131.53 236.6C133.396 236.867 134.663 237 135.33 237C133.196 244.867 131.13 252.733 129.13 260.6C128.774 262.074 128.421 263.552 128.07 265.036C127.234 265.47 126.397 265.992 125.561 266.6C124.094 267.533 122.694 268.6 121.361 269.8C120.028 270.867 118.961 271.6 118.161 272C116.561 272.933 114.361 274.2 111.561 275.8C108.894 277.4 105.828 279.067 102.361 280.8C99.0276 282.533 95.5609 284.133 91.9609 285.6C88.3609 286.933 84.8942 287.867 81.5609 288.4C78.2276 288.8 75.1609 288.667 72.3609 288C69.5609 287.333 67.4276 285.667 65.9609 283C65.5609 282.333 65.2276 281.4 64.9609 280.2C64.6942 278.867 64.4942 277.533 64.3609 276.2C64.2276 274.867 64.2276 273.6 64.3609 272.4C64.6276 271.2 65.0943 270.333 65.7609 269.8C66.1609 269.533 67.1609 269.533 68.7609 269.8C70.4942 269.933 71.6276 269.933 72.1609 269.8C74.8276 269.533 77.1609 269.067 79.1609 268.4C80.7609 267.733 82.2276 266.867 83.5609 265.8C84.8942 264.6 85.8942 263.267 86.5609 261.8C87.3609 260.2 87.7609 258.6 87.7609 257C87.7609 255.267 87.1609 253.6 85.9609 252C84.2276 249.467 81.9609 248.333 79.1609 248.6C76.3609 248.867 73.5609 250.067 70.7609 252.2C67.9609 254.333 65.3609 257.2 62.9609 260.8C60.6942 264.267 59.0942 267.933 58.1609 271.8C57.2276 275.533 57.2276 279.267 58.1609 283ZM69.3609 263C71.3609 259.933 73.7609 257.6 76.5609 256C77.6276 255.467 78.4276 255.267 78.9609 255.4C79.6276 255.533 80.0276 255.933 80.1609 256.6C80.2942 257.133 80.2276 257.8 79.9609 258.6C79.8276 259.4 79.4942 260.067 78.9609 260.6C77.8942 261.667 76.3609 262.333 74.3609 262.6C72.4942 262.867 70.8276 263 69.3609 263Z" fill="black"/>
<path d="M149.958 299.8C148.491 299.933 147.491 299.533 146.958 298.6C146.424 297.533 146.158 296.333 146.158 295C146.158 293.533 146.291 292.133 146.558 290.8C146.824 289.333 147.024 288.267 147.158 287.6L151.158 269.2C151.824 266.4 152.424 263.4 152.958 260.2C153.491 257 154.424 254.067 155.758 251.4C156.424 249.933 157.158 249 157.958 248.6C158.891 248.067 159.691 248 160.358 248.4C161.158 248.667 161.691 249.333 161.958 250.4C162.358 251.467 162.424 252.733 162.158 254.2C161.491 257.4 160.691 260.6 159.758 263.8C158.958 266.867 158.224 270 157.558 273.2C157.291 274.133 156.958 276 156.558 278.8C156.158 281.6 155.624 284.6 154.958 287.8C154.424 290.867 153.758 293.6 152.958 296C152.158 298.4 151.158 299.667 149.958 299.8Z" fill="black"/>
<path d="M167.358 226.4C166.958 225.467 166.224 224.867 165.158 224.6C163.958 224.333 162.958 224.6 162.158 225.4C161.358 226.067 160.824 227 160.558 228.2C160.424 229.267 160.558 230.333 160.958 231.4C161.358 232.333 162.224 232.867 163.558 233C164.624 233.133 165.491 232.867 166.158 232.2C166.958 231.4 167.424 230.467 167.558 229.4C167.824 228.333 167.758 227.333 167.358 226.4Z" fill="black"/>
<path d="M165.07 304.4C165.337 306.4 166.404 307.4 168.27 307.4C169.47 307.4 170.337 306.867 170.87 305.8C171.404 304.6 171.804 303.2 172.07 301.6C172.47 300 172.67 298.467 172.67 297C172.804 295.4 172.937 294.2 173.07 293.4C174.004 288.733 175.004 284.133 176.07 279.6C177.137 275.067 178.204 270.467 179.27 265.8L183.47 249C183.87 247.533 184.204 246 184.47 244.4C184.737 242.667 185.204 241.2 185.87 240C186.404 239.2 186.67 238.667 186.67 238.4V237.6C186.804 237.467 187.004 237.467 187.27 237.6C187.67 237.6 188.404 237.467 189.47 237.2C190.27 237.067 191.137 237 192.07 237C193.004 237 193.87 236.933 194.67 236.8C195.604 236.667 196.337 236.4 196.87 236C197.537 235.467 197.937 234.667 198.07 233.6C198.204 232.267 197.937 231.333 197.27 230.8C196.604 230.267 195.737 229.933 194.67 229.8C193.604 229.667 192.47 229.733 191.27 230C190.204 230.133 189.27 230.2 188.47 230.2C190.337 223.267 192.204 216.4 194.07 209.6C195.937 202.667 197.87 195.8 199.87 189C200.137 187.933 200.537 186.6 201.07 185C201.604 183.4 201.337 182.067 200.27 181C199.07 179.933 197.937 179.667 196.87 180.2C195.937 180.733 195.137 181.533 194.47 182.6C194.07 183.267 193.804 184.067 193.67 185C193.537 185.933 193.337 186.733 193.07 187.4L188.27 204.2C186.67 209.8 185.137 215.467 183.67 221.2C183.537 221.6 183.404 222.267 183.27 223.2C183.137 224 182.937 224.867 182.67 225.8C182.537 226.733 182.337 227.6 182.07 228.4C181.937 229.2 181.67 229.733 181.27 230C180.604 230.4 179.804 230.533 178.87 230.4C177.937 230.267 176.937 230.133 175.87 230C174.937 229.733 173.937 229.533 172.87 229.4C171.937 229.267 171.137 229.4 170.47 229.8C168.337 231.133 167.537 232.267 168.07 233.2C168.47 234 169.404 234.733 170.87 235.4C172.337 235.933 173.937 236.333 175.67 236.6C177.537 236.867 178.804 237 179.47 237C177.337 244.867 175.27 252.733 173.27 260.6C171.404 268.333 169.604 276.2 167.87 284.2C167.604 285 167.204 286.667 166.67 289.2C166.004 291.733 165.47 294.4 165.07 297.2C164.67 299.867 164.67 302.267 165.07 304.4Z" fill="black"/>
<path fill-rule="evenodd" clip-rule="evenodd" d="M310.234 305.695C298.955 313.37 286.565 318.953 273.351 322.302L273.351 322.301C265.669 324.248 257.549 321.113 253.149 314.496C251.037 311.323 250.018 307.693 250.018 304.093C250.018 298.542 252.44 293.059 257.014 289.424C262.187 285.312 266.96 280.694 271.259 275.675C269.745 273.34 268.954 270.62 268.954 267.876C268.952 265.186 269.71 262.475 271.286 260.079C275.562 253.579 278.996 246.593 281.528 239.266C277.769 236.595 275.486 232.239 275.486 227.509C275.486 226.576 275.574 225.627 275.758 224.673C277.795 214.122 277.795 202.98 275.758 192.429C274.643 186.647 277.025 181.032 281.526 177.832C278.994 170.506 275.56 163.522 271.286 157.022C269.71 154.628 268.952 151.914 268.952 149.225C268.952 146.481 269.743 143.761 271.257 141.426C266.959 136.407 262.184 131.79 257.012 127.677C252.44 124.042 250.015 118.559 250.015 113.008C250.015 109.408 251.033 105.779 253.147 102.605C257.551 95.9922 265.671 92.8582 273.352 94.8046C286.566 98.152 298.957 103.737 310.236 111.411C318.897 106.804 329.848 108.224 336.941 115.27C348.25 126.505 357.295 139.48 363.875 153.876C372.909 153.279 381.486 159.011 384.095 168.034C387.884 181.142 389.806 194.773 389.806 208.553C389.806 222.332 387.885 235.965 384.095 249.071C381.486 258.096 372.907 263.828 363.873 263.229C357.294 277.626 348.248 290.601 336.939 301.835C329.846 308.882 318.895 310.301 310.234 305.695ZM260.975 107.836C258.297 111.858 259.125 117.335 262.86 120.304C268.434 124.735 273.584 129.706 278.228 135.106L301.985 117.266C292.421 111.205 282.043 106.729 271.044 103.941C267.218 102.972 263.171 104.537 260.975 107.836ZM280.294 145.331C278.253 146.864 277.746 149.727 279.14 151.846C283.789 158.914 287.534 166.505 290.311 174.462L354.521 156.091C348.487 143.408 340.363 131.946 330.313 121.961C325.678 117.357 318.211 116.866 312.936 120.816C312.924 120.826 312.91 120.834 312.897 120.844L280.294 145.331ZM286.697 208.556C286.697 214.577 286.123 220.603 284.992 226.466L284.991 226.466C284.485 229.092 286.006 231.621 288.531 232.341L362.337 253.458C367.783 255.015 373.488 251.875 375.056 246.454C378.599 234.199 380.395 221.448 380.395 208.555C380.395 195.662 378.599 182.911 375.056 170.656C373.488 165.237 367.783 162.095 362.337 163.653L288.535 184.77C286.007 185.493 284.486 188.02 284.992 190.647C286.123 196.51 286.697 202.535 286.697 208.556ZM290.311 242.647C287.532 250.606 283.788 258.198 279.138 265.267C277.746 267.386 278.252 270.25 280.295 271.784L312.904 296.272C312.916 296.279 312.926 296.286 312.936 296.294C318.212 300.244 325.68 299.754 330.315 295.148C340.366 285.164 348.489 273.701 354.522 261.019L290.311 242.647ZM262.858 296.811C259.124 299.781 258.295 305.257 260.973 309.279C263.171 312.578 267.216 314.144 271.042 313.174C282.042 310.387 292.42 305.908 301.983 299.849L278.226 282.009C273.581 287.409 268.433 292.38 262.858 296.811Z" fill="black"/>
<path fill-rule="evenodd" clip-rule="evenodd" d="M347.657 64.4354C348.341 64.7225 348.712 65.4659 348.531 66.1849C347.612 69.8332 347.605 72.1052 348.235 73.9012C348.87 75.7119 350.236 77.2889 352.668 79.3749C353.179 79.813 353.335 80.5375 353.051 81.1474C352.767 81.7572 352.111 82.1031 351.447 81.9935C349.143 81.6131 347.32 82.0137 345.735 83.0268C344.101 84.0711 342.607 85.8403 341.151 88.3955C340.829 88.9602 340.18 89.2534 339.544 89.1218C338.907 88.9901 338.428 88.4635 338.357 87.8175C338.025 84.8098 337.772 82.5904 336.974 80.7412C336.225 79.0049 334.952 77.5209 332.344 76.1972C331.765 75.9035 331.441 75.2712 331.54 74.63C331.64 73.9888 332.14 73.4842 332.78 73.3793C336.81 72.7191 339.246 71.8604 341.052 70.626C342.852 69.3957 344.171 67.6967 345.796 65.0364C346.183 64.4037 346.974 64.1483 347.657 64.4354ZM336.854 75.6059C338.173 76.7608 339.088 78.068 339.729 79.5528C340.26 80.7829 340.589 82.1144 340.828 83.517C341.821 82.2965 342.907 81.2743 344.119 80.4991C345.304 79.7421 346.577 79.2414 347.947 79.0068C346.811 77.7397 345.939 76.4181 345.404 74.8942C345.02 73.7995 344.825 72.6441 344.799 71.3858C344.173 72.0165 343.498 72.5881 342.745 73.1029C341.14 74.1997 339.249 74.993 336.854 75.6059Z" fill="black"/>
<path fill-rule="evenodd" clip-rule="evenodd" d="M226.508 125.7C226.361 124.973 225.705 124.463 224.964 124.499C224.223 124.536 223.621 125.108 223.545 125.845C223.229 128.947 222.774 131.049 221.681 132.936C220.585 134.83 218.76 136.656 215.41 138.992C214.878 139.364 214.645 140.035 214.832 140.656C215.02 141.277 215.585 141.707 216.234 141.722C219.158 141.789 220.948 142.578 222.373 143.82C223.892 145.143 225.078 147.036 226.677 149.605C227.02 150.157 227.68 150.425 228.311 150.269C228.942 150.112 229.4 149.568 229.447 148.919C229.656 145.986 230.239 143.745 231.262 142.097C232.253 140.499 233.725 139.35 235.967 138.698C236.613 138.51 237.055 137.914 237.048 137.242C237.041 136.569 236.587 135.983 235.937 135.809C232.842 134.978 230.929 134.145 229.574 132.787C228.23 131.439 227.255 129.387 226.508 125.7ZM224.344 141.558C223.125 140.496 221.735 139.713 220.047 139.241C221.942 137.653 223.304 136.121 224.278 134.439C224.735 133.649 225.097 132.842 225.389 132.003C225.956 133.126 226.631 134.084 227.45 134.905C228.591 136.049 229.948 136.864 231.52 137.516C230.385 138.32 229.454 139.321 228.713 140.515C227.954 141.738 227.416 143.129 227.048 144.659C226.227 143.497 225.354 142.439 224.344 141.558Z" fill="black"/>
<path fill-rule="evenodd" clip-rule="evenodd" d="M393.345 259.737C394.07 259.893 394.572 260.555 394.527 261.295C394.297 265.05 394.71 267.284 395.661 268.933C396.62 270.596 398.253 271.893 401.028 273.494C401.611 273.831 401.899 274.514 401.732 275.166C401.565 275.818 400.985 276.279 400.312 276.293C397.977 276.345 396.259 277.075 394.889 278.364C393.476 279.692 392.334 281.706 391.375 284.486C391.163 285.101 390.579 285.509 389.929 285.497C389.279 285.485 388.711 285.056 388.522 284.434C387.64 281.539 386.982 279.405 385.857 277.735C384.8 276.166 383.275 274.943 380.467 274.124C379.844 273.942 379.409 273.38 379.388 272.732C379.367 272.083 379.765 271.495 380.375 271.274C384.214 269.881 386.449 268.587 387.997 267.041C389.539 265.499 390.521 263.586 391.628 260.671C391.891 259.978 392.621 259.581 393.345 259.737ZM384.791 272.71C386.3 273.601 387.441 274.717 388.345 276.058C389.093 277.169 389.663 278.417 390.157 279.751C390.907 278.368 391.785 277.163 392.834 276.178C393.858 275.215 395.017 274.488 396.321 274.004C394.97 272.969 393.869 271.831 393.062 270.432C392.483 269.427 392.077 268.327 391.82 267.095C391.321 267.831 390.763 268.517 390.118 269.162C388.743 270.537 387.031 271.665 384.791 272.71Z" fill="black"/>
<path fill-rule="evenodd" clip-rule="evenodd" d="M255.634 330.676C255.434 329.962 254.742 329.502 254.006 329.593C253.27 329.684 252.711 330.299 252.691 331.04C252.604 334.156 252.305 336.286 251.355 338.249C250.402 340.218 248.716 342.175 245.549 344.752C245.045 345.161 244.863 345.848 245.095 346.454C245.328 347.059 245.924 347.447 246.572 347.414C249.493 347.265 251.336 347.919 252.849 349.052C254.461 350.26 255.784 352.06 257.568 354.504C257.951 355.029 258.629 355.247 259.247 355.045C259.864 354.842 260.281 354.265 260.28 353.615C260.272 350.674 260.688 348.396 261.586 346.677C262.457 345.01 263.84 343.756 266.028 342.94C266.658 342.705 267.055 342.078 266.998 341.408C266.941 340.738 266.445 340.187 265.784 340.061C262.636 339.461 260.667 338.772 259.216 337.517C257.776 336.273 256.651 334.298 255.634 330.676ZM254.648 346.651C253.353 345.682 251.909 345.003 250.191 344.657C251.963 342.934 253.209 341.306 254.056 339.556C254.453 338.734 254.755 337.903 254.984 337.044C255.632 338.123 256.376 339.028 257.254 339.787C258.476 340.843 259.889 341.556 261.506 342.09C260.433 342.975 259.578 344.043 258.927 345.288C258.261 346.564 257.827 347.991 257.573 349.543C256.668 348.446 255.72 347.454 254.648 346.651Z" fill="black"/>
</svg>
