<svg width="688" height="688" viewBox="0 0 688 688" fill="none" xmlns="http://www.w3.org/2000/svg">
<path fill-rule="evenodd" clip-rule="evenodd" d="M445.499 138.735C360.791 54.0216 223.449 54.0216 138.733 138.735C54.0173 223.448 54.0202 360.799 138.733 445.5C223.446 530.213 360.797 530.213 445.499 445.5C530.212 360.793 530.212 223.45 445.499 138.735V138.735ZM91.2128 91.22C202.167 -19.74 382.066 -19.74 493.019 91.22C595.935 194.136 603.393 356.355 515.389 467.869L670.162 622.641C683.279 635.765 683.279 657.039 670.162 670.162C657.039 683.279 635.764 683.279 622.641 670.162L467.869 515.389C356.358 603.393 194.138 595.935 91.22 493.019C-19.74 382.065 -19.74 202.166 91.22 91.2128L91.2128 91.22Z" fill="#682e01"/>
</svg>
