<svg width="713" height="688" viewBox="0 0 713 688" fill="none" xmlns="http://www.w3.org/2000/svg">
<path d="M609.563 510.571C622.89 510.571 634.313 521.994 634.313 535.321C634.313 548.647 622.89 560.07 609.563 560.07H202.175C179.33 560.07 164.103 537.224 171.715 516.286L196.464 442.042L135.546 105.089C129.835 76.5326 105.086 55.5946 76.5326 55.5946H32.7492C19.4227 55.5946 8 46.0755 8 32.7492C8 19.4227 19.4229 8 32.7492 8H76.5326C129.835 8 173.623 44.1683 183.137 95.5717L185.041 110.802L676.198 156.489C695.236 158.393 708.564 179.335 702.851 198.369L624.8 430.626C619.088 443.952 607.666 451.567 594.339 451.567H244.064L223.123 510.581H609.572L609.563 510.571Z" fill="#682e01"/>
<path fill-rule="evenodd" clip-rule="evenodd" d="M265.005 638.12C265.005 661.249 246.253 680 223.125 680C199.992 680 181.246 661.249 181.246 638.12C181.246 614.987 199.992 596.236 223.125 596.236C246.253 596.236 265.005 614.987 265.005 638.12Z" fill="#682e01"/>
<path fill-rule="evenodd" clip-rule="evenodd" d="M605.761 638.12C605.761 661.249 587.009 680 563.881 680C540.748 680 522.001 661.249 522.001 638.12C522.001 614.987 540.748 596.236 563.881 596.236C587.009 596.236 605.761 614.987 605.761 638.12Z" fill="#682e01"/>
</svg>
