<svg width="688" height="688" viewBox="0 0 688 688" fill="none" xmlns="http://www.w3.org/2000/svg">
<path d="M344 8C158.733 8 8 158.733 8 344C8 529.267 158.733 680 344 680C529.267 680 680 529.267 680 344C680 158.733 529.267 8 344 8ZM578.733 525C574.754 447.797 514.551 385.48 438.2 378.52H249.787C173.427 385.499 113.24 447.812 109.267 525C70.5947 474.921 47.5213 412.172 47.5213 344C47.5213 180.253 180.256 47.52 344.001 47.52C507.748 47.52 640.481 180.249 640.481 344C640.481 412.172 617.413 474.921 578.747 525H578.733Z" fill="#682e01"/>
<path d="M478.067 221.133C478.067 295.175 418.04 355.2 344 355.2C269.96 355.2 209.933 295.173 209.933 221.133C209.933 147.087 269.96 87.0667 344 87.0667C418.04 87.0667 478.067 147.093 478.067 221.133" fill="#682e01"/>
</svg>
